# OBJ generated by ONSHAPE BY PTC INC, 1.195 Units = meters
mtllib Assembly 1 - Part 1 (3).mtl
g Part 1
v -0.0143041 0.0290742 0.05 
v -0.0143041 0.0290742 0 
v -0.0243415 0.0213871 0 
v -0.0243415 0.0213871 0.05 
v -0.0306731 0.0104441 0 
v -0.0306731 0.0104441 0.05 
v -0.032335 -0.00208904 0 
v -0.032335 -0.00208904 0.05 
v -0.0290742 -0.0143041 0 
v -0.0290742 -0.0143041 0.05 
v -0.0213871 -0.0243415 0 
v -0.0213871 -0.0243415 0.05 
v -0.0104441 -0.0306731 0 
v -0.0104441 -0.0306731 0.05 
v 0.00208904 -0.032335 0 
v 0.00208904 -0.032335 0.05 
v 0.0143041 -0.0290742 0 
v 0.0143041 -0.0290742 0.05 
v 0.0243415 -0.0213871 0 
v 0.0243415 -0.0213871 0.05 
v 0.0306731 -0.0104441 0 
v 0.0306731 -0.0104441 0.05 
v 0.032335 0.00208904 0 
v 0.032335 0.00208904 0.05 
v 0.0290742 0.0143041 0 
v 0.0290742 0.0143041 0.05 
v 0.0213871 0.0243415 0 
v 0.0213871 0.0243415 0.05 
v 0.0104441 0.0306731 0 
v -0.00208904 0.032335 0 
v 0.0104441 0.0306731 0.05 
v -0.00208904 0.032335 0.05 
v 0.0632552 -0.00438354 0.05 
v 0.0567627 -0.0282566 0.05 
v 0.0416286 -0.0478278 0.05 
v -0.00438354 -0.0632552 0.05 
v -0.0282566 -0.0567627 0.05 
v -0.0478278 -0.0416286 0.05 
v 0.00438354 0.0632552 0.05 
v 0.0282566 0.0567627 0.05 
v 0.0478278 0.0416286 0.05 
v 0.0601177 0.0201569 0.05 
v 0.0201569 -0.0601177 0.05 
v -0.0601177 -0.0201569 0.05 
v -0.0416286 0.0478278 0.05 
v -0.0201569 0.0601177 0.05 
v -0.0632552 0.00438354 0.05 
v -0.0567627 0.0282566 0.05 
v 0.0601177 0.0201569 0.08 
v 0.0632552 -0.00438354 0.08 
v 0.0478278 0.0416286 0.08 
v 0.0282566 0.0567627 0.08 
v 0.00438354 0.0632552 0.08 
v -0.0201569 0.0601177 0.08 
v -0.0416286 0.0478278 0.08 
v -0.0567627 0.0282566 0.08 
v -0.0632552 0.00438354 0.08 
v -0.0601177 -0.0201569 0.08 
v -0.0478278 -0.0416286 0.08 
v -0.0282566 -0.0567627 0.08 
v -0.00438354 -0.0632552 0.08 
v 0.0201569 -0.0601177 0.08 
v 0.0416286 -0.0478278 0.08 
v 0.0567627 -0.0282566 0.08 
v -0.0407837 -0.0136744 0.1 
v -0.0429122 0.00297378 0.1 
v 0.0429122 -0.00297378 0.1 
v -0.0282407 0.0324463 0.1 
v -0.0385077 0.0191692 0.1 
v -0.00297378 -0.0429122 0.1 
v 0.0282407 -0.0324463 0.1 
v 0.0385077 -0.0191692 0.1 
v -0.0324463 -0.0282407 0.1 
v -0.0191692 -0.0385077 0.1 
v -0.0136744 0.0407837 0.1 
v 0.00297378 0.0429122 0.1 
v 0.0407837 0.0136744 0.1 
v 0.0324463 0.0282407 0.1 
v 0.0136744 -0.0407837 0.1 
v 0.0191692 0.0385077 0.1 
vn -0.608021 0.793921 0 
vn -0.865558 0.500808 0 
vn -0.991323 0.131451 0 
vn -0.966167 -0.257917 0 
vn -0.793921 -0.608021 0 
vn -0.500808 -0.865558 0 
vn -0.131451 -0.991323 0 
vn 0.257917 -0.966167 0 
vn 0.608021 -0.793921 0 
vn 0.865558 -0.500808 0 
vn 0.991323 -0.131451 0 
vn 0.966167 0.257917 0 
vn 0.793921 0.608021 0 
vn 0 0 -1 
vn 0.500808 0.865558 0 
vn 0.131451 0.991323 0 
vn -0.257917 0.966167 0 
vn 0 0 -1 
vn 0.991926 0.126818 0 
vn 0.867889 0.496759 0 
vn 0.611723 0.791072 0 
vn 0.262429 0.964951 0 
vn -0.126818 0.991926 0 
vn -0.496759 0.867889 0 
vn -0.791072 0.611723 0 
vn -0.964951 0.262429 0 
vn -0.991926 -0.126818 0 
vn -0.867889 -0.496759 0 
vn -0.611723 -0.791072 0 
vn -0.262429 -0.964951 0 
vn 0.126818 -0.991926 0 
vn 0.496759 -0.867889 0 
vn 0.791072 -0.611723 0 
vn 0.964951 -0.262429 0 
vn -0.701398 -0.0896742 0.707107 
vn 0 0 1 
vn -0.61369 -0.351261 0.707107 
vn -0.682324 0.185565 0.707107 
vn -0.432554 -0.559372 0.707107 
vn -0.559372 0.432554 0.707107 
vn -0.185565 -0.682324 0.707107 
vn -0.351261 0.61369 0.707107 
vn 0.0896742 -0.701398 0.707107 
vn -0.0896742 0.701398 0.707107 
vn 0.351261 -0.61369 0.707107 
vn 0.185565 0.682324 0.707107 
vn 0.559372 -0.432554 0.707107 
vn 0.432554 0.559372 0.707107 
vn 0.682324 -0.185565 0.707107 
vn 0.61369 0.351261 0.707107 
vn 0.701398 0.0896742 0.707107 
usemtl 0.615686_0.811765_0.929412_0.000000_0.000000
o mesh0
f 1//1 2//1 3//1 
f 3//1 4//1 1//1 
o mesh1
f 4//2 3//2 5//2 
f 5//2 6//2 4//2 
o mesh2
f 6//3 5//3 7//3 
f 7//3 8//3 6//3 
o mesh3
f 8//4 7//4 9//4 
f 9//4 10//4 8//4 
o mesh4
f 10//5 9//5 11//5 
f 11//5 12//5 10//5 
o mesh5
f 12//6 11//6 13//6 
f 13//6 14//6 12//6 
o mesh6
f 14//7 13//7 15//7 
f 15//7 16//7 14//7 
o mesh7
f 16//8 15//8 17//8 
f 17//8 18//8 16//8 
o mesh8
f 18//9 17//9 19//9 
f 19//9 20//9 18//9 
o mesh9
f 20//10 19//10 21//10 
f 21//10 22//10 20//10 
o mesh10
f 22//11 21//11 23//11 
f 23//11 24//11 22//11 
o mesh11
f 24//12 23//12 25//12 
f 25//12 26//12 24//12 
o mesh12
f 26//13 25//13 27//13 
f 27//13 28//13 26//13 
o mesh13
f 21//14 29//14 27//14 
f 5//14 11//14 9//14 
f 29//14 21//14 19//14 
f 27//14 25//14 21//14 
f 5//14 13//14 11//14 
f 5//14 17//14 15//14 
f 25//14 23//14 21//14 
f 17//14 2//14 30//14 
f 17//14 5//14 3//14 
f 15//14 13//14 5//14 
f 30//14 29//14 17//14 
f 9//14 7//14 5//14 
f 3//14 2//14 17//14 
f 19//14 17//14 29//14 
o mesh14
f 28//15 27//15 29//15 
f 29//15 31//15 28//15 
o mesh15
f 31//16 29//16 30//16 
f 30//16 32//16 31//16 
o mesh16
f 32//17 30//17 2//17 
f 2//17 1//17 32//17 
o mesh17
f 33//18 34//18 22//18 
f 34//18 35//18 20//18 
f 36//18 37//18 14//18 
f 37//18 38//18 12//18 
f 39//18 40//18 31//18 
f 40//18 41//18 28//18 
f 41//18 42//18 26//18 
f 42//18 33//18 24//18 
f 20//18 22//18 34//18 
f 35//18 43//18 18//18 
f 12//18 14//18 37//18 
f 38//18 44//18 10//18 
f 45//18 46//18 1//18 
f 46//18 39//18 32//18 
f 28//18 31//18 40//18 
f 24//18 26//18 42//18 
f 18//18 20//18 35//18 
f 43//18 36//18 16//18 
f 10//18 12//18 38//18 
f 44//18 47//18 8//18 
f 32//18 1//18 46//18 
f 26//18 28//18 41//18 
f 16//18 18//18 43//18 
f 8//18 10//18 44//18 
f 47//18 48//18 6//18 
f 48//18 45//18 4//18 
f 31//18 32//18 39//18 
f 14//18 16//18 36//18 
f 4//18 6//18 48//18 
f 22//18 24//18 33//18 
f 1//18 4//18 45//18 
f 6//18 8//18 47//18 
o mesh18
f 33//19 42//19 49//19 
f 49//19 50//19 33//19 
o mesh19
f 42//20 41//20 51//20 
f 51//20 49//20 42//20 
o mesh20
f 41//21 40//21 52//21 
f 52//21 51//21 41//21 
o mesh21
f 40//22 39//22 53//22 
f 53//22 52//22 40//22 
o mesh22
f 39//23 46//23 54//23 
f 54//23 53//23 39//23 
o mesh23
f 46//24 45//24 55//24 
f 55//24 54//24 46//24 
o mesh24
f 45//25 48//25 56//25 
f 56//25 55//25 45//25 
o mesh25
f 48//26 47//26 57//26 
f 57//26 56//26 48//26 
o mesh26
f 47//27 44//27 58//27 
f 58//27 57//27 47//27 
o mesh27
f 44//28 38//28 59//28 
f 59//28 58//28 44//28 
o mesh28
f 38//29 37//29 60//29 
f 60//29 59//29 38//29 
o mesh29
f 37//30 36//30 61//30 
f 61//30 60//30 37//30 
o mesh30
f 36//31 43//31 62//31 
f 62//31 61//31 36//31 
o mesh31
f 43//32 35//32 63//32 
f 63//32 62//32 43//32 
o mesh32
f 35//33 34//33 64//33 
f 64//33 63//33 35//33 
o mesh33
f 34//34 33//34 50//34 
f 50//34 64//34 34//34 
o mesh34
f 57//35 58//35 65//35 
f 65//35 66//35 57//35 
o mesh35
f 67//36 68//36 69//36 
f 70//36 71//36 72//36 
f 67//36 73//36 74//36 
f 67//36 66//36 65//36 
f 67//36 75//36 68//36 
f 76//36 77//36 78//36 
f 70//36 79//36 71//36 
f 65//36 73//36 67//36 
f 67//36 76//36 75//36 
f 76//36 67//36 77//36 
f 74//36 70//36 67//36 
f 78//36 80//36 76//36 
f 69//36 66//36 67//36 
f 72//36 67//36 70//36 
o mesh36
f 59//37 73//37 65//37 
f 65//37 58//37 59//37 
o mesh37
f 57//38 66//38 69//38 
f 69//38 56//38 57//38 
o mesh38
f 60//39 74//39 73//39 
f 73//39 59//39 60//39 
o mesh39
f 56//40 69//40 68//40 
f 68//40 55//40 56//40 
o mesh40
f 61//41 70//41 74//41 
f 74//41 60//41 61//41 
o mesh41
f 55//42 68//42 75//42 
f 75//42 54//42 55//42 
o mesh42
f 61//43 62//43 79//43 
f 79//43 70//43 61//43 
o mesh43
f 54//44 75//44 76//44 
f 76//44 53//44 54//44 
o mesh44
f 63//45 71//45 79//45 
f 79//45 62//45 63//45 
o mesh45
f 53//46 76//46 80//46 
f 80//46 52//46 53//46 
o mesh46
f 64//47 72//47 71//47 
f 71//47 63//47 64//47 
o mesh47
f 51//48 52//48 80//48 
f 80//48 78//48 51//48 
o mesh48
f 50//49 67//49 72//49 
f 72//49 64//49 50//49 
o mesh49
f 51//50 78//50 77//50 
f 77//50 49//50 51//50 
o mesh50
f 49//51 77//51 67//51 
f 67//51 50//51 49//51 
