# OBJ generated by ONSHAPE BY PTC INC, 1.195 Units = meters
mtllib Assembly 1 - Part 1 (4).mtl
g Part 1
v 0.02 0 -0.02 
v 0.02 0.03 -0.05 
v 0.05 0.03 -0.02 
v -0.02 0.03 -0.05 
v -0.02 0 -0.02 
v 0.02 0 0.02 
v -0.02 0 0.02 
v -0.05 0.03 -0.02 
v 0.05 0.0740135 -0.02 
v 0.02 0.0740135 -0.05 
v 0.05 0.03 0.02 
v 0.02 0.03 0.05 
v 0.05 0.0740135 0.02 
v 0.08 0.134014 -0.05 
v 0.08 0.104014 -0.02 
v -0.02 0.03 0.05 
v -0.05 0.03 0.02 
v -0.05 0.12 -0.02 
v -0.02 0.137574 -0.05 
v 0.02 0.0740135 0.05 
v 0.08 0.104014 0.02 
v 0.22 0.104014 -0.02 
v 0.22 0.134014 -0.05 
v 0.08 0.134014 0.05 
v 0.22 0.104014 0.02 
v 0.22 0.134014 0.05 
v 0.25 0.134014 -0.02 
v 0.25 0.134014 0.02 
v -0.05 0.12 0.02 
v -0.02 0.137574 0.05 
v -0.0287868 0.171213 0.02 
v -0.0287868 0.171213 -0.02 
v -0.0212132 0.178787 -0.02 
v 0.0124264 0.17 -0.05 
v 0.22 0.17 -0.05 
v 0.25 0.17 -0.02 
v 0.03 0.2 -0.02 
v 0.22 0.2 -0.02 
v -0.0212132 0.178787 0.02 
v 0.0124264 0.17 0.05 
v 0.03 0.2 0.02 
v 0.22 0.2 0.02 
v 0.22 0.17 0.05 
v 0.25 0.17 0.02 
vn 0.57735 -0.57735 -0.57735 
vn 0 -0.707107 -0.707107 
vn 0 -1 0 
vn -0.57735 -0.57735 -0.57735 
vn 0.707107 0 -0.707107 
vn 0.707107 -0.707107 9.81308e-17 
vn 0.57735 -0.57735 0.57735 
vn 1 0 1.38778e-16 
vn 0.57735 -0.57735 -0.57735 
vn 0 -0.707107 0.707107 
vn -0.707107 -0.707107 -9.81308e-17 
vn -0.707107 0 -0.707107 
vn 0.707107 0 0.707107 
vn 0.707107 -0.707107 9.81308e-17 
vn 0 -0.707107 -0.707107 
vn 0.57735 -0.57735 0.57735 
vn 0 -1 0 
vn 0 -0.707107 0.707107 
vn 0.707107 -0.707107 9.81308e-17 
vn -0.57735 -0.57735 0.57735 
vn -1 0 -1.38778e-16 
vn -0.707107 0 0.707107 
vn -0.92388 0.382683 -1.28214e-16 
vn -0.756975 0.313549 -0.573302 
vn -0.5 0.5 -0.707107 
vn 0.57735 -0.57735 -0.57735 
vn 0 0 -1 
vn 0.707107 0 -0.707107 
vn 0 0.707107 -0.707107 
vn -0.756975 0.313549 0.573302 
vn -0.707107 0.707107 -9.81308e-17 
vn -0.313549 0.756975 -0.573302 
vn -0.5 0.5 0.707107 
vn -0.382683 0.92388 -5.3108e-17 
vn 0.57735 0.57735 -0.57735 
vn 0 1 0 
vn -0.313549 0.756975 0.573302 
vn 0 0 1 
vn 1 0 1.38778e-16 
vn 0.57735 -0.57735 0.57735 
vn 0.707107 0.707107 9.81308e-17 
vn 0.707107 0 0.707107 
vn 0 0.707107 0.707107 
vn 0.57735 0.57735 0.57735 
usemtl 0.615686_0.811765_0.929412_0.000000_0.000000
o mesh0
f 1//1 2//1 3//1 
o mesh1
f 4//2 2//2 1//2 
f 1//2 5//2 4//2 
o mesh2
f 5//3 1//3 6//3 
f 6//3 7//3 5//3 
o mesh3
f 4//4 5//4 8//4 
o mesh4
f 9//5 3//5 2//5 
f 2//5 10//5 9//5 
o mesh5
f 1//6 3//6 11//6 
f 11//6 6//6 1//6 
o mesh6
f 12//7 6//7 11//7 
o mesh7
f 11//8 3//8 9//8 
f 9//8 13//8 11//8 
o mesh8
f 14//9 15//9 9//9 
f 9//9 10//9 14//9 
o mesh9
f 7//10 6//10 12//10 
f 12//10 16//10 7//10 
o mesh10
f 17//11 8//11 5//11 
f 5//11 7//11 17//11 
o mesh11
f 4//12 8//12 18//12 
f 18//12 19//12 4//12 
o mesh12
f 20//13 12//13 11//13 
f 11//13 13//13 20//13 
o mesh13
f 13//14 9//14 15//14 
f 15//14 21//14 13//14 
o mesh14
f 22//15 15//15 14//15 
f 14//15 23//15 22//15 
o mesh15
f 24//16 20//16 13//16 
f 13//16 21//16 24//16 
o mesh16
f 25//17 21//17 15//17 
f 15//17 22//17 25//17 
o mesh17
f 26//18 24//18 21//18 
f 21//18 25//18 26//18 
o mesh18
f 25//19 22//19 27//19 
f 27//19 28//19 25//19 
o mesh19
f 7//20 16//20 17//20 
o mesh20
f 8//21 17//21 29//21 
f 29//21 18//21 8//21 
o mesh21
f 16//22 30//22 29//22 
f 29//22 17//22 16//22 
o mesh22
f 31//23 32//23 18//23 
f 18//23 29//23 31//23 
o mesh23
f 19//24 18//24 32//24 
o mesh24
f 19//25 32//25 33//25 
f 33//25 34//25 19//25 
o mesh25
f 22//26 23//26 27//26 
o mesh26
f 10//27 19//27 34//27 
f 35//27 23//27 14//27 
f 4//27 19//27 10//27 
f 14//27 34//27 35//27 
f 34//27 14//27 10//27 
f 10//27 2//27 4//27 
o mesh27
f 36//28 27//28 23//28 
f 23//28 35//28 36//28 
o mesh28
f 35//29 34//29 37//29 
f 37//29 38//29 35//29 
o mesh29
f 29//30 30//30 31//30 
o mesh30
f 32//31 31//31 39//31 
f 39//31 33//31 32//31 
o mesh31
f 34//32 33//32 37//32 
o mesh32
f 30//33 40//33 39//33 
f 39//33 31//33 30//33 
o mesh33
f 41//34 37//34 33//34 
f 33//34 39//34 41//34 
o mesh34
f 35//35 38//35 36//35 
o mesh35
f 42//36 38//36 37//36 
f 37//36 41//36 42//36 
o mesh36
f 39//37 40//37 41//37 
o mesh37
f 43//38 40//38 24//38 
f 20//38 24//38 40//38 
f 40//38 30//38 20//38 
f 16//38 12//38 20//38 
f 20//38 30//38 16//38 
f 24//38 26//38 43//38 
o mesh38
f 36//39 44//39 28//39 
f 28//39 27//39 36//39 
o mesh39
f 25//40 28//40 26//40 
o mesh40
f 44//41 36//41 38//41 
f 38//41 42//41 44//41 
o mesh41
f 43//42 26//42 28//42 
f 28//42 44//42 43//42 
o mesh42
f 43//43 42//43 41//43 
f 41//43 40//43 43//43 
o mesh43
f 44//44 42//44 43//44 
